<?xml version="1.0" encoding="UTF-8"?>
<svg width="28px" height="20px" viewBox="0 0 28 20" version="1.1" xmlns="http://www.w3.org/2000/svg" xmlns:xlink="http://www.w3.org/1999/xlink">
    <!-- Generator: Sketch 50.2 (55047) - http://www.bohemiancoding.com/sketch -->
    <title>EG</title>
    <desc>Created with Sketch.</desc>
    <defs>
        <rect id="path-1" x="0" y="0" width="28" height="20" rx="2"/>
    </defs>
    <g id="Page-1" stroke="none" stroke-width="1" fill="none" fill-rule="evenodd">
        <g id="Flags" transform="translate(-76.000000, -220.000000)">
            <g id="EG" transform="translate(76.000000, 220.000000)">
                <mask id="mask-2" fill="white">
                    <use xlink:href="#path-1"/>
                </mask>
                <rect stroke="#F5F5F5" stroke-width="0.5" x="0.25" y="0.25" width="27.5" height="19.5" rx="2"/>
                <rect id="Rectangle-2" fill="#E41D33" mask="url(#mask-2)" x="0" y="0" width="28" height="6.66666667"/>
                <rect id="Rectangle-2" fill="#262626" mask="url(#mask-2)" x="0" y="13.3333333" width="28" height="6.66666667"/>
                <path d="M11,8.66051865 L11,11.3394814 C11,11.436721 10.950973,11.4098456 11.0282754,11.3583107 L12.4817666,10.3893166 L12.6666667,10.3333333 L13.6666667,10.3333333 L13.6666667,11.3333333 C13.6666667,11.5189096 13.8148177,11.6666667 14,11.6666667 C14.1855763,11.6666667 14.3333333,11.5185156 14.3333333,11.3333333 L14.3333333,10.3333333 L15.3333333,10.3333333 L15.5182334,10.3893166 L16.9717246,11.3583107 C17.0509384,11.4111199 17,11.4386825 17,11.3394814 L17,8.66051865 C17,8.48335243 16.8493605,8.33333333 16.6666667,8.33333333 L16.3364563,8.33333333 C16.2716762,8.33333333 16.1766566,8.39204277 16.1501875,8.44498108 L15.3333333,10.0786893 L15.0351909,9.48240453 C14.9600299,9.3320824 14.8234181,9.09789082 14.65,8.86666667 C14.396354,8.52847205 14.1524306,8.33333333 14,8.33333333 C13.9741036,8.33333333 13.9337989,8.34560668 13.88104,8.37485282 C13.7353901,8.45559183 13.5570121,8.63134504 13.371513,8.87080212 C13.1903993,9.10459821 13.0427081,9.34111526 12.9588212,9.49382275 L12.6527861,10.0509282 L11.8498125,8.44498108 C11.8249335,8.39522308 11.7236574,8.33333333 11.6635437,8.33333333 L11.3333333,8.33333333 C11.1470672,8.33333333 11,8.47943287 11,8.66051865 Z" id="Rectangle-129" stroke="#C6A846" stroke-width="0.666666667" fill-opacity="0.25" fill="#F4B32E" mask="url(#mask-2)"/>
            </g>
        </g>
    </g>
</svg>