<?xml version="1.0" encoding="UTF-8"?>
<svg width="28px" height="28px" viewBox="0 0 28 28" version="1.1" xmlns="http://www.w3.org/2000/svg" xmlns:xlink="http://www.w3.org/1999/xlink">
    <!-- Generator: sketchtool 50.2 (55047) - http://www.bohemiancoding.com/sketch -->
    <title>4451B0F0-9C78-40CA-9E8C-94FEF9A08764</title>
    <desc>Created with sketchtool.</desc>
    <defs/>
    <g id="Page-1" stroke="none" stroke-width="1" fill="none" fill-rule="evenodd">
        <g id="Desktop-HD-Contacts" transform="translate(-321.000000, -999.000000)">
            <g id="Footer/HD-Copy" transform="translate(0.000000, 840.000000)">
                <g id="Group-7" transform="translate(321.000000, 159.000000)">
                    <rect id="Rectangle-4-Copy-2" fill="#5BBFCA" x="0" y="0" width="28" height="28"/>
                    <path d="M25,24 L20.3587135,24 L20.3587135,17.3207402 C20.3587135,15.5724531 19.6327023,14.378946 18.0362183,14.378946 C16.815087,14.378946 16.1359948,15.1843504 15.8199083,15.9605558 C15.7013758,16.2391625 15.7198965,16.6272652 15.7198965,17.0153679 L15.7198965,24 L11.121825,24 C11.121825,24 11.1810913,12.1683422 11.121825,11.0928475 L15.7198965,11.0928475 L15.7198965,13.1185247 C15.9915334,12.2328232 17.460842,10.968752 19.8055621,10.968752 C22.7145461,10.968752 25,12.8253186 25,16.8231414 L25,24 L25,24 Z M6.47189558,9.47838894 L6.44226246,9.47838894 C4.96060677,9.47838894 4,8.49170775 4,7.2410194 C4,5.96599859 4.98900517,5 6.50029398,5 C8.01034807,5 8.9388523,5.96356535 8.96848542,7.23736953 C8.96848542,8.48805789 8.01034807,9.47838894 6.47189558,9.47838894 L6.47189558,9.47838894 L6.47189558,9.47838894 Z M4.52969191,11.0928475 L8.62276576,11.0928475 L8.62276576,24 L4.52969191,24 L4.52969191,11.0928475 L4.52969191,11.0928475 Z" id="LinkedIn" fill="#FFFFFF"/>
                </g>
            </g>
        </g>
    </g>
</svg>