<?xml version="1.0" encoding="UTF-8"?>
<svg width="28px" height="20px" viewBox="0 0 28 20" version="1.1" xmlns="http://www.w3.org/2000/svg" xmlns:xlink="http://www.w3.org/1999/xlink">
    <!-- Generator: Sketch 50.2 (55047) - http://www.bohemiancoding.com/sketch -->
    <title>PF</title>
    <desc>Created with Sketch.</desc>
    <defs>
        <rect id="path-1" x="0" y="0" width="28" height="20" rx="2"/>
        <circle id="path-3" cx="3.33333333" cy="3.33333333" r="3.33333333"/>
    </defs>
    <g id="Page-1" stroke="none" stroke-width="1" fill="none" fill-rule="evenodd">
        <g id="Flags" transform="translate(-508.000000, -748.000000)">
            <g id="PF" transform="translate(508.000000, 748.000000)">
                <mask id="mask-2" fill="white">
                    <use xlink:href="#path-1"/>
                </mask>
                <rect stroke="#F5F5F5" stroke-width="0.5" x="0.25" y="0.25" width="27.5" height="19.5" rx="2"/>
                <rect id="Rectangle-2" fill="#D82332" mask="url(#mask-2)" x="0" y="0" width="28" height="5.33333333"/>
                <rect id="Rectangle-2" fill="#D82332" mask="url(#mask-2)" x="0" y="14.6666667" width="28" height="5.33333333"/>
                <g id="Group-5" mask="url(#mask-2)">
                    <g transform="translate(10.666667, 6.666667)">
                        <g id="Group-3">
                            <path d="M2.40084656,4.08602151 L2.11640212,4.35129032 C2.37354497,4.42344086 2.73026455,4.33946237 2.87227513,4.08602151 L2.40084656,4.08602151" id="Fill-7" fill="#064A89"/>
                            <path d="M0.105820106,4.26673491 C0.298306878,4.45920803 0.617142857,4.43673491 0.80962963,4.31490695 C1.00222222,4.19297147 1.1437037,4.18522953 1.2637037,4.19802523 C1.27640212,4.30662738 1.3047619,4.44587469 1.35343915,4.5835091 L0.211534392,4.5835091 C0.183174603,4.51297147 0.127830688,4.34856286 0.105820106,4.26673491" id="Fill-8" fill="#064A89"/>
                            <path d="M0.317460317,4.78112482 C0.541587302,4.67521084 0.770687831,4.75918933 0.86984127,4.83553342 C1.05291005,4.97671621 1.35534392,4.93843664 1.5037037,4.85832912 C1.56031746,4.95069471 1.62910053,5.04155492 1.71206349,5.11090976 L0.49026455,5.11090976 C0.440634921,5.03080224 0.333333333,4.83392052 0.317460317,4.78112482" id="Fill-9" fill="#064A89"/>
                            <path d="M5.63142857,5.65822788 C5.68507937,5.60371175 5.75767196,5.5139268 5.80507937,5.44984078 C5.72613757,5.44016336 5.63439153,5.38306659 5.5368254,5.33435691 C5.3568254,5.24446444 5.18486772,5.24446444 5.03174603,5.35037841 C4.80455026,5.50747519 4.52042328,5.54596981 4.2994709,5.38887304 C4.05703704,5.21639992 3.83238095,5.25414185 3.64296296,5.36328164 C3.45354497,5.47220637 3.33365079,5.47865798 3.22,5.47865798 C3.10634921,5.47865798 2.98645503,5.47220637 2.79703704,5.36328164 C2.60761905,5.25414185 2.38296296,5.21639992 2.1405291,5.38887304 C1.91957672,5.54596981 1.63544974,5.50747519 1.40825397,5.35037841 C1.25513228,5.24446444 1.0831746,5.24446444 0.903174603,5.33435691 C0.805502646,5.38306659 0.713862434,5.44016336 0.634920635,5.44984078 C0.682328042,5.5139268 0.754920635,5.60371175 0.808571429,5.65822788 L5.63142857,5.65822788" id="Fill-10" fill="#064A89"/>
                            <path d="M5.04,6.19451613 C5.09047619,6.16247312 5.22941799,6.05666667 5.29883598,6.00215054 C5.22306878,6.01817204 5.05037037,5.96193548 4.96116402,5.91548387 C4.70222222,5.78075269 4.53185185,5.79365591 4.33936508,5.89623656 C4.14677249,5.99892473 3.87534392,6.05344086 3.67650794,5.9444086 C3.47767196,5.83537634 3.33555556,5.80645161 3.23142857,5.80645161 C3.12730159,5.80645161 2.98518519,5.83537634 2.78634921,5.9444086 C2.58751323,6.05344086 2.31608466,5.99892473 2.12349206,5.89623656 C1.93100529,5.79365591 1.76063492,5.78075269 1.50169312,5.91548387 C1.41248677,5.96193548 1.23978836,6.01817204 1.16402116,6.00215054 C1.23343915,6.05666667 1.37238095,6.16247312 1.42285714,6.19451613 L5.04,6.19451613" id="Fill-11" fill="#064A89"/>
                            <path d="M3.90169312,5.1283871 C3.84804233,5.09956989 3.78529101,5.03236559 3.72804233,4.94612903 C3.63650794,4.80817204 3.49132275,4.7311828 3.27354497,4.7311828 C3.0557672,4.7311828 2.91058201,4.80817204 2.81904762,4.94612903 C2.76179894,5.03236559 2.69904762,5.09956989 2.64550265,5.1283871 L3.90169312,5.1283871" id="Fill-12" fill="#064A89"/>
                            <path d="M3.5437037,4.63322581 C3.5215873,4.59473118 3.47428571,4.4727957 3.45851852,4.40860215 C3.40793651,4.42473118 3.31015873,4.43107527 3.25333333,4.43107527 C3.19650794,4.43107527 3.09873016,4.42473118 3.04814815,4.40860215 C3.03238095,4.4727957 2.98507937,4.59473118 2.96296296,4.63322581 L3.5437037,4.63322581" id="Fill-13" fill="#064A89"/>
                            <path d="M4.06931217,4.08602151 L4.35375661,4.35129032 C4.09661376,4.42344086 3.73989418,4.33946237 3.5978836,4.08602151 L4.06931217,4.08602151" id="Fill-14" fill="#064A89"/>
                            <path d="M6.43280423,4.26673491 C6.24031746,4.45920803 5.92148148,4.43673491 5.72899471,4.31490695 C5.53640212,4.19297147 5.39492063,4.18522953 5.27492063,4.19802523 C5.2621164,4.30662738 5.23386243,4.44587469 5.18518519,4.5835091 L6.32708995,4.5835091 C6.35544974,4.51297147 6.41068783,4.34856286 6.43280423,4.26673491" id="Fill-15" fill="#064A89"/>
                            <path d="M6.26232804,4.78112482 C6.03820106,4.67521084 5.80910053,4.75918933 5.70994709,4.83553342 C5.52687831,4.97671621 5.22444444,4.93843664 5.07608466,4.85832912 C5.0194709,4.95069471 4.95068783,5.04155492 4.86772487,5.11090976 L6.08952381,5.11090976 C6.13915344,5.03080224 6.24656085,4.83392052 6.26232804,4.78112482" id="Fill-16" fill="#064A89"/>
                            <path d="M4.49216931,6.40489715 C4.10941799,6.56360682 3.69058201,6.65124123 3.25164021,6.65124123 C2.81227513,6.65124123 2.39365079,6.56371435 2.01058201,6.40468209 C2.09259259,6.3951122 2.20126984,6.35489715 2.28888889,6.30532725 C2.43100529,6.2251122 2.68973545,6.20909069 2.81291005,6.28930575 C2.93597884,6.3695208 3.08433862,6.44962833 3.25164021,6.44962833 C3.4189418,6.44962833 3.56730159,6.3695208 3.69037037,6.28930575 C3.81343915,6.20909069 4.07227513,6.2251122 4.21439153,6.30532725 C4.30190476,6.35489715 4.41005291,6.39532725 4.49216931,6.40489715" id="Fill-17" fill="#064A89"/>
                            <path d="M3.95851852,0.0602550439 C3.26730159,-0.0840460313 2.64550265,-0.000712698005 2.64550265,0.66003999 L2.64550265,2.46896472 C2.64550265,2.66778193 2.64941799,2.69294322 2.88222222,2.74799698 C3.38719577,2.86745935 3.43449735,2.87950236 3.9837037,3.0076744 L3.9837037,1.14756687 C3.55449735,1.09939483 3.39037037,0.854663646 3.39037037,0.570255044 C3.39037037,0.294448592 3.57968254,0.114771173 3.95851852,0.0602550439" id="Fill-18" fill="#514537"/>
                            <path d="M2.18720592,5.16182796 C1.80212655,5.16182796 1.39810539,4.82182796 1.39810539,4.17397849 L1.39810539,2.56387097 C1.39810539,2.41795699 1.41429587,2.39741935 1.38075089,2.36344086 C1.36106835,2.34344086 1.40286729,2.31376344 1.43122708,2.28483871 C1.47387259,2.24150538 1.50307894,2.20548387 1.4455128,2.14688172 C1.38784084,2.0883871 1.4123911,2.07311828 1.4486874,2.03634409 C1.4849837,1.99935484 1.49916359,1.96258065 1.4644546,1.9272043 C1.4297456,1.89193548 1.42180909,1.88075269 1.45969269,1.84225806 C1.49757629,1.80376344 1.48180909,1.78774194 1.4502747,1.7555914 C1.41863449,1.72354839 1.40371386,1.70032258 1.4439255,1.65946237 C1.4833964,1.61935484 1.48646518,1.61290323 1.53228528,1.61290323 L1.72170327,1.61290323 C1.76593608,1.61290323 1.76667682,1.62655914 1.72953396,1.66430108 C1.68138581,1.71311828 1.66720592,1.73236559 1.72170327,1.78774194 C1.77609481,1.84301075 1.77376677,1.86150538 1.73905777,1.89677419 C1.68688846,1.94967742 1.66403132,1.98580645 1.71694137,2.03956989 C1.76985142,2.09322581 1.77450751,2.11731183 1.73429587,2.15817204 C1.69408423,2.19903226 1.69006306,2.23516129 1.73429587,2.28 C1.76826412,2.31451613 1.77059216,2.33462366 1.77059216,2.39548387 L1.77059216,4.03924731 C1.77059216,4.31505376 1.96625354,4.48182796 2.33874031,4.48182796 C2.71122708,4.48182796 2.83747047,4.32784946 2.94477206,4.22526882 C2.87535407,4.71913978 2.67334349,5.16182796 2.18720592,5.16182796" id="Fill-19" fill="#514537"/>
                            <path d="M3.27400171,3.58827957 C3.3260652,3.60419355 3.37654139,3.6811828 3.37654139,3.76462366 L3.4791869,3.76462366 C3.4791869,3.69408602 3.44913399,3.58505376 3.39474245,3.51763441 C3.39389589,3.5 3.39156785,3.48483871 3.38765251,3.46956989 C3.4255361,3.42139785 3.4807742,3.3444086 3.4791869,3.27064516 C3.4781287,3.22408602 3.4239488,3.22580645 3.4175996,3.26268817 C3.41241441,3.29301075 3.39241441,3.33967742 3.35453081,3.35569892 C3.35453081,3.29634409 3.3213033,3.22580645 3.27400171,3.22580645 C3.22670013,3.22580645 3.19347261,3.29634409 3.19347261,3.35569892 C3.15558901,3.33967742 3.13558901,3.29301075 3.13040383,3.26268817 C3.12405462,3.22580645 3.06976891,3.22408602 3.06881653,3.27064516 C3.06722923,3.3444086 3.12246732,3.42139785 3.16035092,3.46956989 C3.15643557,3.48483871 3.15410753,3.5 3.15326097,3.51763441 C3.09886944,3.58505376 3.06881653,3.69408602 3.06881653,3.76462366 L3.17146203,3.76462366 C3.17146203,3.6811828 3.22193822,3.60419355 3.27400171,3.58827957" id="Fill-20" fill="#514537"/>
                            <path d="M2.74490118,3.58827957 C2.79696468,3.60419355 2.84754669,3.6811828 2.84754669,3.76462366 L2.95008637,3.76462366 C2.95008637,3.69408602 2.92013928,3.58505376 2.86564192,3.51763441 C2.86490118,3.5 2.86246732,3.48483871 2.85855198,3.46956989 C2.89643557,3.42139785 2.95167367,3.3444086 2.95008637,3.27064516 C2.94913399,3.22408602 2.89484827,3.22580645 2.88849907,3.26268817 C2.88331388,3.29301075 2.86320806,3.33967742 2.82543028,3.35569892 C2.82543028,3.29634409 2.79230859,3.22580645 2.74490118,3.22580645 C2.6975996,3.22580645 2.6644779,3.29634409 2.6644779,3.35569892 C2.6265943,3.33967742 2.60648848,3.29301075 2.6013033,3.26268817 C2.59495409,3.22580645 2.5407742,3.22408602 2.539716,3.27064516 C2.5381287,3.3444086 2.59336679,3.42139785 2.63125039,3.46956989 C2.62733505,3.48483871 2.625007,3.5 2.62416044,3.51763441 C2.56976891,3.58505376 2.539716,3.69408602 2.539716,3.76462366 L2.6423615,3.76462366 C2.6423615,3.6811828 2.69283769,3.60419355 2.74490118,3.58827957" id="Fill-21" fill="#514537"/>
                            <path d="M2.21580065,3.58827957 C2.26786415,3.60419355 2.31834034,3.6811828 2.31834034,3.76462366 L2.42098584,3.76462366 C2.42098584,3.69408602 2.39093293,3.58505376 2.33654139,3.51763441 C2.33569483,3.5 2.33336679,3.48483871 2.32945145,3.46956989 C2.36733505,3.42139785 2.42257314,3.3444086 2.42098584,3.27064516 C2.41992764,3.22408602 2.36574774,3.22580645 2.35939854,3.26268817 C2.35421335,3.29301075 2.33410753,3.33967742 2.29622393,3.35569892 C2.29622393,3.29634409 2.26310224,3.22580645 2.21580065,3.22580645 C2.16839325,3.22580645 2.13527155,3.29634409 2.13527155,3.35569892 C2.09738796,3.33967742 2.07738796,3.29301075 2.07220277,3.26268817 C2.06585356,3.22580645 2.01156785,3.22408602 2.01061547,3.27064516 C2.00902817,3.3444086 2.06426626,3.42139785 2.10214986,3.46956989 C2.09823452,3.48483871 2.09580065,3.5 2.09505991,3.51763441 C2.04056256,3.58505376 2.01061547,3.69408602 2.01061547,3.76462366 L2.11315515,3.76462366 C2.11315515,3.6811828 2.16373716,3.60419355 2.21580065,3.58827957" id="Fill-22" fill="#514537"/>
                            <path d="M3.80310224,3.58827957 C3.75103875,3.60419355 3.70056256,3.6811828 3.70056256,3.76462366 L3.59791706,3.76462366 C3.59791706,3.69408602 3.62786415,3.58505376 3.6823615,3.51763441 C3.68310224,3.5 3.6855361,3.48483871 3.68955727,3.46956989 C3.65156785,3.42139785 3.59632975,3.3444086 3.59791706,3.27064516 C3.59897526,3.22408602 3.65315515,3.22580645 3.65950436,3.26268817 C3.66468954,3.29301075 3.68479536,3.33967742 3.72257314,3.35569892 C3.72257314,3.29634409 3.75580065,3.22580645 3.80310224,3.22580645 C3.85050965,3.22580645 3.88363134,3.29634409 3.88363134,3.35569892 C3.92140912,3.33967742 3.94151494,3.29301075 3.94670012,3.26268817 C3.95304933,3.22580645 4.00722923,3.22408602 4.00828743,3.27064516 C4.00987473,3.3444086 3.95463663,3.42139785 3.91675303,3.46956989 C3.92066838,3.48483871 3.92310224,3.5 3.92384298,3.51763441 C3.97834034,3.58505376 4.00828743,3.69408602 4.00828743,3.76462366 L3.90564192,3.76462366 C3.90564192,3.6811828 3.85516573,3.60419355 3.80310224,3.58827957" id="Fill-23" fill="#514537"/>
                            <path d="M4.33220277,3.58827957 C4.28013928,3.60419355 4.22966309,3.6811828 4.22966309,3.76462366 L4.12701759,3.76462366 C4.12701759,3.69408602 4.1570705,3.58505376 4.21146203,3.51763441 C4.21230859,3.5 4.21463663,3.48483871 4.21855198,3.46956989 C4.18066838,3.42139785 4.12543028,3.3444086 4.12701759,3.27064516 C4.12796997,3.22408602 4.18225568,3.22580645 4.18860489,3.26268817 C4.19379007,3.29301075 4.21379007,3.33967742 4.25167367,3.35569892 C4.25167367,3.29634409 4.28490118,3.22580645 4.33220277,3.22580645 C4.37961018,3.22580645 4.41273187,3.29634409 4.41273187,3.35569892 C4.45061547,3.33967742 4.47061547,3.29301075 4.47580065,3.26268817 C4.48214986,3.22580645 4.53632975,3.22408602 4.53738796,3.27064516 C4.53897526,3.3444086 4.48373716,3.42139785 4.44585356,3.46956989 C4.44976891,3.48483871 4.45209695,3.5 4.45294351,3.51763441 C4.50744087,3.58505376 4.53738796,3.69408602 4.53738796,3.76462366 L4.43484827,3.76462366 C4.43484827,3.6811828 4.38426626,3.60419355 4.33220277,3.58827957" id="Fill-24" fill="#514537"/>
                            <polygon id="Fill-25" fill="#514537" points="1.9047619 3.87096774 4.68232804 3.87096774 4.68232804 4.00430108 1.9047619 4.00430108"/>
                            <path d="M4.35544974,5.16182796 C4.7405291,5.16182796 5.14455026,4.82182796 5.14455026,4.17397849 L5.14455026,2.56387097 C5.14455026,2.41795699 5.12835979,2.39741935 5.16190476,2.36344086 C5.1815873,2.34344086 5.13978836,2.31376344 5.11142857,2.28483871 C5.06878307,2.24150538 5.03957672,2.20548387 5.09714286,2.14688172 C5.15481481,2.0883871 5.13026455,2.07311828 5.09407407,2.03634409 C5.05767196,1.99935484 5.04349206,1.96258065 5.07820106,1.9272043 C5.11291005,1.89193548 5.12084656,1.88075269 5.08296296,1.84225806 C5.04507937,1.80376344 5.06084656,1.78774194 5.09238095,1.7555914 C5.12402116,1.72354839 5.1389418,1.70032258 5.09873016,1.65946237 C5.05925926,1.61935484 5.05619048,1.61290323 5.01037037,1.61290323 L4.82095238,1.61290323 C4.7768254,1.61290323 4.77597884,1.62655914 4.81312169,1.66430108 C4.86126984,1.71311828 4.87544974,1.73236559 4.82095238,1.78774194 C4.76656085,1.84301075 4.76888889,1.86150538 4.80359788,1.89677419 C4.8557672,1.94967742 4.87851852,1.98580645 4.82571429,2.03956989 C4.77280423,2.09322581 4.76804233,2.11731183 4.80835979,2.15817204 C4.84857143,2.19903226 4.85259259,2.23516129 4.80835979,2.28 C4.77439153,2.31451613 4.77206349,2.33462366 4.77206349,2.39548387 L4.77206349,4.03924731 C4.77206349,4.31505376 4.5762963,4.48182796 4.20391534,4.48182796 C3.83142857,4.48182796 3.70529101,4.32784946 3.5978836,4.22526882 C3.66730159,4.71913978 3.86931217,5.16182796 4.35544974,5.16182796" id="Fill-26" fill="#514537"/>
                            <path d="M1.9047619,3.00763441 C1.9047619,3.00763441 1.90486772,2.91301075 1.90486772,2.79569892 L2.46010582,3.00774194 L1.9047619,3.00763441" id="Fill-29" fill="#EEA339"/>
                            <path d="M1.24243386,3.10612903 L0,2.93591398 C0.0360846561,2.66537634 0.104338624,2.4016129 0.202539683,2.15053763 L1.24243386,2.57 L1.24243386,3.10612903" id="Fill-31" fill="#EEA339"/>
                            <path d="M3.80952381,1.02924731 L4.03037037,0.107526882 C4.28878307,0.171182796 4.54,0.267096774 4.77809524,0.393548387 L4.06582011,1.77892473 L4.06835979,1.08333333 C3.98613757,1.08376344 3.86,1.07096774 3.80952381,1.02924731" id="Fill-33" fill="#EEA339"/>
                            <path d="M1.27173948,3.19634409 L0.00613101701,3.11827957 C-0.0101652793,3.38795699 0.0060251969,3.66010753 0.0547024456,3.92860215 C0.0547024456,3.92860215 1.27173948,3.93634409 1.27173948,3.92860215 L1.27173948,3.19634409" id="Fill-35" fill="#EEA339"/>
                            <path d="M1.25915344,2.32892473 C1.21820106,2.2744086 1.24349206,2.24537634 1.28761905,2.21645161 C1.33185185,2.18763441 1.32550265,2.16516129 1.30349206,2.12354839 C1.28137566,2.08182796 1.25925926,2.03688172 1.30031746,1.99204301 C1.34137566,1.94709677 1.32550265,1.92784946 1.29396825,1.89580645 C1.26243386,1.86376344 1.25925926,1.82849462 1.28761905,1.8027957 C1.31608466,1.77709677 1.30973545,1.75784946 1.29089947,1.73225806 C1.27185185,1.70655914 1.23470899,1.65451613 1.26793651,1.62086022 L0.751640212,1.1827957 C0.581058201,1.39010753 0.435026455,1.61892473 0.317460317,1.86430108 L1.25915344,2.32892473" id="Fill-37" fill="#EEA339"/>
                            <path d="M2.49608466,2.56774194 L1.88074074,1.96139785 C1.96751323,1.87322581 1.97619048,1.8588172 1.91470899,1.79623656 C1.84761905,1.72806452 1.84518519,1.72096774 1.98169312,1.58215054 C2.02825397,1.53494624 2.00222222,1.50193548 1.93597884,1.50193548 L1.53037037,1.50193548 C1.49566138,1.50193548 1.46835979,1.50376344 1.44296296,1.52956989 L0.952380952,1.04698925 C1.13957672,0.851182796 1.34867725,0.680322581 1.57449735,0.537634409 L2.49608466,2.04354839 L2.49608466,2.56774194" id="Fill-39" fill="#EEA339"/>
                            <path d="M1.85610283,2.66 C1.85610283,2.50935484 1.85620865,2.36021505 1.85620865,2.33903226 C1.85620865,2.29408602 1.85303404,2.27645161 1.81832505,2.2411828 C1.78361605,2.20591398 1.80097055,2.18903226 1.82784886,2.15053763 L2.41155256,2.64462366 L2.41155256,2.93473118 L1.85610283,2.66" id="Fill-41" fill="#EEA339"/>
                            <path d="M2.40285714,1.77967742 L2.40285714,1.06849462 C2.40285714,0.606666667 2.42835979,0.375698925 2.49460317,0.329247312 L2.4415873,0.107526882 C2.18243386,0.178387097 1.93121693,0.274301075 1.69312169,0.400752688 L2.40285714,1.77967742" id="Fill-43" fill="#EEA339"/>
                            <path d="M4.68232804,3.00763441 C4.68232804,3.00763441 4.68222222,2.91301075 4.68222222,2.79569892 L4.12698413,3.00774194 L4.68232804,3.00763441" id="Fill-45" fill="#EEA339"/>
                            <path d="M5.29100529,3.10612903 L6.53343915,2.93591398 C6.4973545,2.66537634 6.42910053,2.4016129 6.33089947,2.15053763 L5.29100529,2.57 L5.29100529,3.10612903" id="Fill-47" fill="#EEA339"/>
                            <path d="M5.29100529,3.19634409 L6.55650794,3.11827957 C6.57280423,3.38795699 6.55671958,3.66010753 6.50793651,3.92860215 C6.50793651,3.92860215 5.29100529,3.93634409 5.29100529,3.92860215 L5.29100529,3.19634409" id="Fill-49" fill="#EEA339"/>
                            <path d="M5.25101719,2.32892473 C5.29207539,2.2744086 5.26667857,2.24537634 5.22255159,2.21645161 C5.17831878,2.18763441 5.18466799,2.16516129 5.20667857,2.12354839 C5.22879497,2.08182796 5.25091137,2.03688172 5.20985317,1.99204301 C5.16879497,1.94709677 5.18466799,1.92784946 5.21620238,1.89580645 C5.24773677,1.86376344 5.25091137,1.82849462 5.22255159,1.8027957 C5.19408598,1.77709677 5.20043518,1.75784946 5.21927116,1.73225806 C5.23831878,1.70655914 5.27535582,1.65451613 5.24223412,1.62086022 L5.75853042,1.1827957 C5.92911243,1.39010753 6.07503836,1.61892473 6.1926045,1.86430108 L5.25101719,2.32892473" id="Fill-51" fill="#EEA339"/>
                            <path d="M4.12698413,2.56774194 L4.74232804,1.96139785 C4.65544974,1.87322581 4.64677249,1.8588172 4.70835979,1.79623656 C4.77544974,1.72806452 4.7778836,1.72096774 4.64137566,1.58215054 C4.59470899,1.53494624 4.62084656,1.50193548 4.68708995,1.50193548 L5.09269841,1.50193548 C5.12740741,1.50193548 5.15470899,1.50376344 5.18010582,1.52956989 L5.67068783,1.04698925 C5.48349206,0.851182796 5.27439153,0.680322581 5.04857143,0.537634409 L4.12698413,2.04354839 L4.12698413,2.56774194" id="Fill-53" fill="#EEA339"/>
                            <path d="M4.68243386,2.66 C4.68243386,2.50935484 4.68232804,2.36021505 4.68232804,2.33903226 C4.68232804,2.29408602 4.68550265,2.27645161 4.72021164,2.2411828 C4.75492063,2.20591398 4.73756614,2.18903226 4.71068783,2.15053763 L4.12698413,2.64462366 L4.12698413,2.93473118 L4.68243386,2.66" id="Fill-55" fill="#EEA339"/>
                            <path d="M1.48148148,2.3655914 C1.50359788,2.38806452 1.51312169,2.41043011 1.51312169,2.46494624 L1.51312169,4.18086022 C1.51312169,4.75172043 1.85396825,5.06924731 2.20433862,5.06924731 C2.52624339,5.06924731 2.73777778,4.77096774 2.84825397,4.42462366 C2.70624339,4.53688172 2.4978836,4.57215054 2.2989418,4.57215054 C2.06857143,4.57215054 1.69619048,4.41505376 1.69619048,4.07505376 L1.69619048,2.41043011 C1.69619048,2.3655914 1.65195767,2.3655914 1.48148148,2.3655914" id="Fill-57" fill="#D82332"/>
                            <path d="M3.49437615,0.117372473 C3.05427033,0.0721036557 2.64601637,0.165114408 2.64601637,0.775221935 L2.64601637,2.39618968 C2.64601637,2.66683484 2.62506398,2.6346843 2.85077827,2.69156602 C3.26030208,2.79479183 3.30675711,2.80791011 3.80347668,2.92317892 L3.80347668,1.27393161 C3.3793497,1.22672731 3.19554017,0.944469247 3.19554017,0.631888602 C3.19554017,0.383178924 3.30368832,0.149092903 3.49437615,0.117372473" id="Fill-58" fill="#D82332"/>
                            <path d="M5.07047619,2.3655914 C5.04835979,2.38806452 5.03883598,2.41043011 5.03883598,2.46494624 L5.03883598,4.18086022 C5.03883598,4.75172043 4.69798942,5.06924731 4.34761905,5.06924731 C4.02571429,5.06924731 3.81417989,4.77096774 3.7037037,4.42462366 C3.84582011,4.53688172 4.05407407,4.57215054 4.25301587,4.57215054 C4.48338624,4.57215054 4.8557672,4.41505376 4.8557672,4.07505376 L4.8557672,2.41043011 C4.8557672,2.3655914 4.9,2.3655914 5.07047619,2.3655914" id="Fill-59" fill="#D82332"/>
                        </g>
                        <g id="Oval-210">
                            <mask id="mask-4" fill="white">
                                <use xlink:href="#path-3"/>
                            </mask>
                            <g id="Mask"/>
                            <circle fill="#064A89" mask="url(#mask-4)" cx="3.33333333" cy="8.66666667" r="3.33333333"/>
                        </g>
                    </g>
                </g>
            </g>
        </g>
    </g>
</svg>