<?xml version="1.0" encoding="UTF-8"?>
<svg width="67px" height="47px" viewBox="0 0 67 47" version="1.1" xmlns="http://www.w3.org/2000/svg" xmlns:xlink="http://www.w3.org/1999/xlink">
    <!-- Generator: Sketch 50.2 (55047) - http://www.bohemiancoding.com/sketch -->
    <title>Group 13</title>
    <desc>Created with Sketch.</desc>
    <defs/>
    <g id="Page-1" stroke="none" stroke-width="1" fill="none" fill-rule="evenodd">
        <g id="Desktop-HD-Index-MS" transform="translate(-894.000000, -1787.000000)">
            <g id="Group-56" transform="translate(651.000000, 1673.000000)">
                <g id="Group">
                    <g id="Group-13" transform="translate(243.000000, 114.000000)">
                        <path d="M65.6664354,10.4867591 C65.6664354,10.4867591 65.0250668,5.99557123 63.0567464,4.01779982 C60.56055,1.42201074 57.7625634,1.40912208 56.4794406,1.25720177 C47.2935382,0.597902098 33.5142027,0.597902098 33.5142027,0.597902098 L33.4856688,0.597902098 C33.4856688,0.597902098 19.7066546,0.597902098 10.5204309,1.25720177 C9.23724382,1.40912208 6.44028542,1.42201074 3.94318934,4.01779982 C1.97499743,5.99557123 1.33452854,10.4867591 1.33452854,10.4867591 C1.33452854,10.4867591 0.678057554,15.7609013 0.678057554,21.0349797 L0.678057554,25.9794401 C0.678057554,31.2534546 1.33452854,36.527533 1.33452854,36.527533 C1.33452854,36.527533 1.97499743,41.0187847 3.94318934,42.9965561 C6.44028542,45.592409 9.72039104,45.5102916 11.1813362,45.7823572 C16.4329113,46.2823352 33.5,46.4370629 33.5,46.4370629 C33.5,46.4370629 47.2935382,46.4164538 56.4794406,45.757218 C57.7625634,45.6052339 60.56055,45.592409 63.0567464,42.9965561 C65.0250668,41.0187847 65.6664354,36.527533 65.6664354,36.527533 C65.6664354,36.527533 66.3219424,31.2534546 66.3219424,25.9794401 L66.3219424,21.0349797 C66.3219424,15.7609013 65.6664354,10.4867591 65.6664354,10.4867591 L65.6664354,10.4867591 Z" id="Play-Button" fill-opacity="0.8" fill="#5BBFCA"/>
                        <polygon id="Path-2" fill="#FFFFFF" points="26.7230498 31.5961554 26.7200011 13.6590925 44.6228788 22.6588732"/>
                    </g>
                </g>
            </g>
        </g>
    </g>
</svg>