<?xml version="1.0" encoding="UTF-8"?>
<svg width="28px" height="28px" viewBox="0 0 28 28" version="1.1" xmlns="http://www.w3.org/2000/svg" xmlns:xlink="http://www.w3.org/1999/xlink">
    <!-- Generator: sketchtool 50.2 (55047) - http://www.bohemiancoding.com/sketch -->
    <title>5345AD47-E8DB-4FD0-BC59-B44F983733D0</title>
    <desc>Created with sketchtool.</desc>
    <defs/>
    <g id="Page-1" stroke="none" stroke-width="1" fill="none" fill-rule="evenodd">
        <g id="Desktop-HD-Contacts" transform="translate(-278.000000, -999.000000)">
            <g id="Footer/HD-Copy" transform="translate(0.000000, 840.000000)">
                <g id="Group-6" transform="translate(278.000000, 159.000000)">
                    <rect id="Rectangle-4-Copy" fill="#5BBFCA" x="0" y="0" width="28" height="28"/>
                    <path d="M24,8.01249549 C23.2651288,8.35384615 22.4739097,8.58468761 21.6439514,8.68782954 C22.4915185,8.15738534 23.1418677,7.31628747 23.4482597,6.31433731 C22.6546927,6.80548935 21.7777778,7.16280246 20.8409931,7.35435175 C20.0943828,6.52062116 19.0272935,6 17.8463344,6 C15.5818513,6 13.7446734,7.92163236 13.7446734,10.291441 C13.7446734,10.6278801 13.7798908,10.9544962 13.8503258,11.2688335 C10.440101,11.089563 7.4172683,9.38280968 5.3922639,6.7833875 C5.0389153,7.4194294 4.83700182,8.15738534 4.83700182,8.9432286 C4.83700182,10.4314193 5.56130774,11.745251 6.66244057,12.5151318 C5.99096085,12.4942579 5.35704643,12.2990249 4.80295827,11.9797761 L4.80295827,12.0325749 C4.80295827,14.1126038 6.21752656,15.8475984 8.09579151,16.24052 C7.75183424,16.3412062 7.38909432,16.3915493 7.01461525,16.3915493 C6.75048424,16.3915493 6.49222281,16.3657638 6.24217879,16.3154207 C6.76457123,18.0197183 8.27892235,19.2611051 10.0750132,19.2942579 C8.67101015,20.4460094 6.90074544,21.1323944 4.97904561,21.1323944 C4.64800141,21.1323944 4.32047896,21.1127483 4,21.0734561 C5.81604743,22.2890574 7.97370429,23 10.2898398,23 C17.838117,23 21.9644304,16.4615385 21.9644304,10.7899603 C21.9644304,10.6033225 21.9609086,10.4166847 21.9538651,10.2337306 C22.7556495,9.6283857 23.4517814,8.87323944 24,8.01249549" id="Twitter" fill="#FFFFFF"/>
                </g>
            </g>
        </g>
    </g>
</svg>